<svg xmlns="http://www.w3.org/2000/svg" viewBox="0 0 471.7 471.7"><path fill="none" d="M407.2 93.7c-18.3-18.2-42.5-28.2-68.2-28.2-25.7 0-50 10.1-68.3 28.3l-21.9 21.9c-7.1 7.1-18.7 7.1-25.8 0l-22-22.1c-18.3-18.3-42.6-28.3-68.4-28.3-25.7 0-49.9 10-68.1 28.2-18.2 18.1-28.2 42.3-28.2 68.1 0 25.7 10.1 50 28.3 68.3L235.7 401l171.5-170.8c18.2-18.2 28.2-42.4 28.2-68.2 0-25.8-10-50.1-28.2-68.3z"/><path d="M430.1 70.5c-23.7-23.7-55.2-36.7-88.8-36.7s-65.1 13.1-88.9 36.8L236 87.1l-16.6-16.6c-23.8-23.8-55.4-36.9-89-36.9-33.5 0-65 13-88.7 36.7C18 94 4.9 125.6 5 159.1c0 33.4 13.1 65 36.9 88.8l187.8 187.8c1.6 1.6 3.8 2.5 6 2.5s4.4-.9 6-2.4l188.2-187.5c23.7-23.7 36.8-55.3 36.8-88.9.1-33.6-12.9-65.1-36.6-88.9zm-15.9 166.7L235.7 415.1 57.6 236.9c-20.2-20.2-31.3-46.9-31.3-75.3 0-28.5 11.1-55.1 31.2-75.1 20.1-20.1 46.8-31.2 75.1-31.2 28.5 0 55.3 11.1 75.4 31.3l22.1 22.1c3.3 3.3 8.4 3.3 11.6 0l21.9-21.9c20.2-20.2 46.9-31.3 75.3-31.3 28.3 0 55 11.1 75.2 31.2 20.1 20.1 31.2 46.9 31.2 75.3.1 28.4-11 55.1-31.1 75.2z"/></svg>