<svg width="148" height="36" fill="none" xmlns="http://www.w3.org/2000/svg"><path d="M0 23.966v4.32l13.793 6.891v-4.32L0 23.966z" fill="#6321A6"/><path d="M13.793 30.857v4.32l13.792-6.891v-4.32l-13.792 6.891z" fill="#FFCD00"/><path d="M27.689 23.966v4.32l13.793-6.892v-4.32l-13.793 6.892z" fill="#FF9E1B"/><path d="M0 15.429v4.32l13.793 6.891v-4.32L0 15.43z" fill="#6321A6"/><path d="M13.793 22.32v4.32l13.792-6.891v-4.32L13.793 22.32z" fill="#FFCD00"/><path d="M27.689 15.428v4.32l13.793-6.89v-4.32l-13.793 6.89z" fill="#FF9E1B"/><path d="M0 6.892v4.32l13.793 6.891v-4.32L0 6.892z" fill="#6321A6"/><path d="M13.793 13.68V18l13.792-6.891V6.892L13.793 13.68z" fill="#FFCD00"/><path d="M27.689 6.891v4.32L41.482 4.32V0L27.689 6.891z" fill="#FF9E1B"/><path d="M82.652 11.108v15.12h-3.63v-15.12h-4.77V7.92h13.17v3.188h-4.77zm12.341 2.16l-2.282 6.583h4.563l-2.281-6.582zm4.148 12.858l-1.037-3.189h-6.326l-1.037 3.189h-3.837l6.74-18.206h2.8l6.741 18.206h-4.044zm11.407-15.018v15.12h-3.63v-15.12h-4.77V7.92h13.17v3.188h-4.77zm14 15.121c-3.733 0-6.741-2.572-6.741-6.378V7.92h3.63v11.829c0 2.057 1.244 3.394 3.111 3.394 1.97 0 3.215-1.235 3.215-3.395V7.92h3.526v11.93c0 3.909-3.008 6.378-6.741 6.378zm16.178.514c-2.904 0-5.082-.617-6.948-2.469l2.385-2.365c1.244 1.234 2.8 1.645 4.563 1.645 2.178 0 3.422-.822 3.422-2.365 0-.617-.207-1.132-.622-1.543-.415-.309-.726-.515-1.763-.617l-2.282-.309c-1.555-.514-2.696-1.028-3.629-1.851-.933-.926-1.348-2.16-1.348-3.703 0-3.395 2.489-5.76 6.637-5.76 2.592 0 4.563.617 6.222 2.16l-2.385 2.365c-1.141-1.131-2.697-1.337-3.941-1.337-1.97 0-2.904 1.132-2.904 2.366 0 .514.104 1.029.519 1.337.415.309.933.617 1.763.72l2.281.309c1.763.205 2.8.72 3.63 1.543 1.037.925 1.452 2.262 1.452 4.011.103 3.703-3.008 5.863-7.052 5.863zm-75.704 0c-2.903 0-5.081-.617-6.948-2.469l2.385-2.468c1.245 1.234 2.8 1.645 4.563 1.645 2.178 0 3.422-.822 3.422-2.365 0-.617-.207-1.132-.622-1.543-.415-.309-.726-.514-1.763-.617l-2.281-.309a9.153 9.153 0 01-3.63-1.748c-.933-1.029-1.452-2.366-1.348-3.703 0-3.395 2.593-5.76 6.637-5.76 2.593 0 4.563.617 6.222 2.16l-2.385 2.365c-1.14-1.131-2.593-1.337-3.94-1.337-1.971 0-2.904 1.132-2.904 2.366 0 .514.103 1.029.518 1.337.415.309.934.617 1.763.72l2.282.309c1.763.205 2.8.72 3.63 1.543 1.036.925 1.451 2.262 1.451 4.011.104 3.703-3.007 5.863-7.052 5.863z" fill="#060024"/></svg>