<svg width="50" height="50" fill="none" xmlns="http://www.w3.org/2000/svg"><circle cx="25" cy="25" r="25" fill="#fff"/><g clip-path="url(#clip0)"><path d="M12.148 40c-.41 0-.655-.204-.73-.607-.207-1.077-.367-2.236-.157-3.415.079-.444.224-1.01.643-1.467.153-.167.405-.397.732-.548.728-.336 1.494-.708 2.155-1.239.364-.294.596-.558.75-.857.059-.116.133-.207.198-.287.031-.039.064-.078.091-.12.205-.32.113-.475-.104-.62l-.044-.03c-.395-.265-.768-.515-1.2-.519a.415.415 0 01-.41-.386l-.021-.347c-.018-.28-.036-.55-.063-.82a.893.893 0 00-.08-.285c-.29-.614-.149-1.209.008-1.658.136-.388.451-.609.87-.609h.021c1.367.024 2.732.038 4.1.048.963.006 1.927.008 2.889 0 .939-.006 2.041.033 3.15.395a.32.32 0 00.156-.136c.041-.07.043-.127.038-.142-.514-.42-.797-.973-1.072-1.507l-.129-.249c-.151-.288-.203-.61-.247-.893-.012-.076-.024-.153-.038-.227a.8.8 0 01.015-.377 27.233 27.233 0 00-.55-.134c-.867-.202-1.628-.669-2.392-1.47-.229.23-.375.426-.405.683-.01.091-.041.367-.274.526-.238.162-.513.09-.646.054a2.875 2.875 0 00-.37-.064 5.33 5.33 0 01-.331-.053 3.543 3.543 0 01-.646-.184.52.52 0 01-.235-.197c-.012.203-.053.38-.078.491a.415.415 0 01-.61.27l-.254-.145c-.236-.135-.457-.26-.67-.397-.17-.109-.234-.283-.273-.388-.053-.129-.088-.222-.123-.314a4.998 4.998 0 00-.166-.409c-.136-.287-.129-.583.02-.905.047-.105.096-.21.141-.319a6.944 6.944 0 00-.234.26c-.09.102-.18.204-.274.302l-.058.056.101.137c.085.112.106.26.057.392l-.357.97a.415.415 0 01-.704.126l-.197-.229c-.17-.198-.32-.37-.457-.552-.13-.172-.107-.37-.095-.477l.022-.328c.01-.153.021-.305.025-.458.005-.162.016-.593.444-.78.431-.189.768-.532 1.124-.895l.143-.146c.24-.242.606-.544 1.15-.487.322-.299.723-.24.863-.22.218.032.44.045.674.057a4.13 4.13 0 01.635-1.448c.044-.067.081-.166.122-.272.035-.095.07-.19.114-.28.268-.549.537-1.098.82-1.639.028-.056.06-.11.092-.162a1.106 1.106 0 00-.325.021l-.026.02c-.06.045-.152.114-.274.151-.2.06-.45.134-.709.122a.7.7 0 01-.567-.325c-.273-.038-.547-.19-.567-.71-.01-.26.005-.488.046-.696.041-.217.242-.48.506-.543.547-.13 1.035-.443 1.45-.725l.052-.035c.178-.123.364-.25.576-.352a1.31 1.31 0 01.506-.109c.009-.1.021-.196.038-.307l.029-.217a.416.416 0 01.32-.355.418.418 0 01.442.185l.131.206c.082.126.157.242.221.36.302-.048.56.037.774.107.075.025.15.05.226.066.198.043.345.16.401.321.02.022.11.053.165.072.073.025.145.052.212.084.136.065.55.264.578.786a.413.413 0 01-.03.178c.14.2.28.397.418.596.024.034.046.068.066.1.25-.252.53-.452.791-.628a.909.909 0 01-.133-.408 1.53 1.53 0 01.008-.343l.009-.09c.006-.225.105-.342.2-.404a1.343 1.343 0 01.065-.294c.058-.157.148-.286.238-.4.063-.083.133-.16.215-.249l.108-.116a.412.412 0 01.473-.102l.102.042c.113.045.245.1.37.168.886.487.816 1.218.77 1.702a1.942 1.942 0 01-.105.508c-.02.054-.05.132-.096.213.232.343.268.745.297 1.07.008.084.015.168.026.25.098.723.134 1.464.157 2.092.008.218-.08.4-.15.547-.02.044-.043.09-.059.133a.302.302 0 00-.01.026c.088.494.196 1.045.459 1.507.078.137.133.174.213.198.51.151.933.506 1.256 1.056.188.32.366.646.544.972.11.2.218.4.33.597.542.192.953.573 1.25 1.163l.027.054c.555.82.9 1.73 1.076 2.826.078.491.227.972.384 1.48.047.15.093.3.137.45.062.206.195.401.42.612.162.152.302.316.438.475.09.105.178.21.274.31.142.146.29.283.44.421l.221.205a.413.413 0 01.093.473.791.791 0 01-.252.324.414.414 0 01-.221.479.412.412 0 01-.372.377l-.33.034a.877.877 0 01-.215.15c.226.202.46.378.705.53.213.13.398.304.522.491 1.104 1.668 2.245 3.484 3.11 5.47.173.397.301.81.425 1.207l.087.273c.044.142.048.275.051.393.002.041.003.083.007.127a.413.413 0 01-.392.448l-.093.006a2.352 2.352 0 01-.18.008l-5.202.018c-6.94.025-13.877.05-20.816.078.002 0 .004 0 0 0zm7.308-18.08l.067.013.014-.059a1.032 1.032 0 01-.08.045zm-2.18-.857c.244.156.387.357.463.568a.37.37 0 01.153-.15l.047-.027c.073-.042.17-.099.3-.122.116-.02.232-.03.35-.04.067-.006.133-.01.199-.019a.846.846 0 00.534-.286c-.314-.103-.58-.275-.817-.44-.06-.043-.162-.075-.27-.11a2.641 2.641 0 01-.271-.099l-.08-.035c-.163-.07-.33-.143-.497-.223a9.157 9.157 0 00-.08.668l-.002.067c-.003.062-.006.15-.029.248zm15.07 9.09a.41.41 0 01-.258-.092l-.114-.09a3.001 3.001 0 01-.198-.162c-.616-.556-1.4-.792-2.232-1.042l-.168-.05a87.691 87.691 0 00-1.006-.296l-.53-.154a.414.414 0 01-.296-.447.669.669 0 01-.62.195 12.754 12.754 0 01-.662-.176l-.277-.078a.414.414 0 01-.05-.78l.204-.087c.14-.059.265-.112.392-.164a.517.517 0 00.114-.06.632.632 0 00-.053-.086 3.041 3.041 0 01-.575-1.39 2.055 2.055 0 01-.017-.176l-.005-.056a.414.414 0 01.32-.436c.362-.086.654-.006.913.248.118.116.316.206.49.286.37.168.622.43.726.752.068.213.1.552-.131.955l-.03.052c.242-.295.48-.58.72-.865.05-.059.078-.1.093-.127a.851.851 0 00-.122-.086c-.555-.34-.77-.878-.96-1.352a.414.414 0 01.256-.55c1.003-.323 1.003-.323 1.506-1.055a.416.416 0 01.72.067l.093.206c.07.156.134.301.196.446.026.064.047.131.067.198a.752.752 0 00.043.124c.259.305.407.677.45 1.128.142 1.461 1.784 2.14 2.396 3.64.025.06-1.078.8-1.05.877l.044.126a.413.413 0 01-.389.557zm-3.67-2.506c.327.095.635.185.94.277l.166.05c.561.17 1.134.341 1.67.62-.456-1.188-.814-2.328-.933-3.562-.026-.283-.11-.499-.263-.68a1.075 1.075 0 01-.198-.416c-.01-.032-.018-.064-.03-.095-.272.32-.514.453-1.072.645.111.23.245.42.451.548.2.122.471.324.524.66.054.336-.143.615-.297.795-.308.363-.61.731-.927 1.115l-.032.043zm-1.69-2.029c.07.165.159.32.27.47.128.171.19.328.215.464.044-.065.085-.13.123-.198.066-.113.085-.21.06-.289-.03-.094-.13-.183-.28-.252a3.902 3.902 0 01-.387-.195z" fill="#FF9E1B"/></g><defs><clipPath id="clip0"><path fill="#fff" transform="translate(10 10)" d="M0 0h30v30H0z"/></clipPath></defs></svg>