<svg width="50" height="50" fill="none" xmlns="http://www.w3.org/2000/svg"><circle cx="25" cy="25" r="25" fill="#fff"/><g clip-path="url(#clip0)"><path d="M35.465 37.409h-.004c-1.705-.006-3.41-.008-5.114-.011l-1.353-.001a.512.512 0 01-.262-.95l.394-.235c1.85-1.132 3.345-2.39 4.569-3.848 1.215-1.447 1.979-3.101 2.269-4.917.15-.938.204-1.714.17-2.441a10.339 10.339 0 00-2.258-6.037c-.291-.368-.61-.702-1-1.102a1.319 1.319 0 00-.77-.41c-.263-.035-.448.039-.595.252a2.068 2.068 0 00-.27.557c-1.428 4.6-2.852 9.203-4.275 13.805l-1.45 4.701a.572.572 0 01-.539.44c-.216-.009-.411-.133-.475-.339l-.423-1.368c-1.78-5.756-3.558-11.512-5.34-17.267-.045-.15-.1-.282-.16-.391-.21-.389-.504-.499-.895-.331a1.963 1.963 0 00-.588.37c-1.61 1.553-2.64 3.437-3.064 5.597a10.1 10.1 0 00-.134 2.995c.152 1.492.467 2.682.988 3.744.524 1.066 1.263 2.074 2.26 3.082a19.094 19.094 0 003.987 3.067c.027.016.056.034.084.053a.547.547 0 01.239.519l-.01.051a.511.511 0 01-.5.406h-1.818c-1.547.002-3.094.003-4.641.008a.801.801 0 01-.672-.317c-1.803-2.292-2.956-4.601-3.526-7.058a10.589 10.589 0 01-.283-2.296l-.002-.234c-.006-.669-.012-1.361.04-2.049.248-3.167 1.363-5.939 3.314-8.239 1.568-1.848 3.458-3.273 5.617-4.232.195-.086.394-.163.6-.242l.298-.114a.514.514 0 01.678.329l4.432 14.957 4.392-14.95a.51.51 0 01.674-.333l.218.081c.165.06.325.12.48.19 3.844 1.727 6.575 4.438 8.119 8.057.452 1.059.765 2.219.957 3.547.17 1.178.219 2.417.146 3.684-.087 1.49-.466 2.983-1.16 4.563a19.764 19.764 0 01-2.597 4.301.901.901 0 01-.747.356zM31 36.447c0-.447-.562-1.452 1-1.446 1-1.274 1.858-1.225 2.478-2.637.643-1.468 1.942-2.498 2.022-3.864.069-1.198.633-2.431.473-3.541-.18-1.238-.057-1.983-.473-2.959-1.46-3.422.473-2-1.821-4.291.344.666-2.437-.656-3.437-.709l-4.276 12.756c-.066.226-1.733 5.256-1.971 5.245-.217-.01-1.933-5.037-1.995-5.245l-3.272-15.978c-.115.044-.227.09-.338.139-2.018.897-3.785 2.229-5.253 3.959-1.81 2.133-2.843 4.709-3.073 7.658-.05.642-.044 1.312-.038 1.959l.002.235c.006.667-.693-2.437-.528-1.728.529 2.282-.604-5.466 1.07-3.32 1.526-.003-.59 5.51.93 5.509l6.74 8.189a19.604 19.604 0 01-2.82-2.357c-1.075-1.088-1.877-2.184-2.45-3.35-.577-1.175-2.78-2.577-2.946-4.193-.113-1.111.335-4.043.546-5.119.466-2.369 2.168-3.657 3.93-5.359.298-.288 3.754-2.396 4-2.5.872-.371.74 2.867 1.2 3.715.09.168 1.667 3.313.8 3.285 1.761 5.688 1.737 8.812 3.495 14.501l.997-3.231c1.424-4.603 2.847-9.206 4.276-13.807.093-.298.233-.587.404-.834.369-.534.93-.777 1.583-.682.514.074.97.312 1.355.708.322.331 1.544.672 1.89 1.111 1.528 1.938 1.54 4.238 1.655 6.693.037.799-.02 1.641-.182 2.65-.32 2.001-1.16 3.823-2.495 5.414-1.046 1.243-2.021 2.419-3.478 3.424z" fill="#0D90BC"/></g><defs><clipPath id="clip0"><path fill="#fff" transform="translate(10 10)" d="M0 0h30v30H0z"/></clipPath></defs></svg>