<svg width="86" height="86" fill="none" xmlns="http://www.w3.org/2000/svg"><path d="M36.5 27.834h-4.333A2.166 2.166 0 0030 30v26c0 1.197.97 2.167 2.167 2.167H36.5c1.197 0 2.167-.97 2.167-2.167V30c0-1.197-.97-2.166-2.167-2.166zm17.333 0H49.5c-1.197 0-2.167.97-2.167 2.166v25.997c0 1.197.97 2.166 2.167 2.166h4.333c1.197 0 2.167-.97 2.167-2.166V30c0-1.197-.97-2.166-2.167-2.166z" stroke="#fff" stroke-width="1.5" stroke-linecap="round" stroke-linejoin="round"/><circle cx="43" cy="43" r="42.25" stroke="#fff" stroke-width="1.5"/></svg>