<svg width="28" height="27" fill="none" xmlns="http://www.w3.org/2000/svg"><path d="M27.536 23.445a.949.949 0 00-1.323.227 3.433 3.433 0 01-1.233.944c-1.14.522-2.468.394-3.947-.38a22.62 22.62 0 00-.177-.093V6.763a4.872 4.872 0 014.866-4.866.949.949 0 100-1.897 6.771 6.771 0 00-6.764 6.764V9.66H4.12V6.764a4.872 4.872 0 014.866-4.867.949.949 0 000-1.897 6.771 6.771 0 00-6.763 6.764v16.642a29.18 29.18 0 00-1.608.683.949.949 0 00.794 1.723c8.162-3.757 14.698-2.018 18.743.104 1.284.672 2.412.91 3.366.91.92 0 1.677-.222 2.252-.485 1.267-.58 1.922-1.474 1.993-1.574a.949.949 0 00-.227-1.322zm-8.578-.169c-3.734-1.502-8.802-2.373-14.838-.529v-4.501h14.838v5.03zm0-6.927H4.12v-4.79h14.838v4.79z" fill="#FF9E1B"/></svg>