<svg xmlns="http://www.w3.org/2000/svg" viewBox="0 0 512 512"><circle cx="256" cy="148" r="101.5" fill="none"/><path d="M432.4 335.6c-27.1-27.1-59-47.1-94.8-59.5l-12.2-4.2 10.6-7.3c38.5-26.5 61.5-70.1 61.5-116.6C397.5 70 334 6.5 256 6.5S114.5 70 114.5 148c0 46.5 23 90.2 61.5 116.6l10.6 7.3-12.2 4.2c-35.9 12.4-67.8 32.4-94.8 59.5C34 381.1 8.2 441.2 6.6 505.5h27c3.4-119.7 101.9-216 222.4-216s219 96.3 222.4 216h27c-1.6-64.3-27.4-124.4-73-169.9zM141.5 148c0-63.1 51.4-114.5 114.5-114.5S370.5 84.9 370.5 148 319.1 262.5 256 262.5 141.5 211.1 141.5 148z"/><path d="M29.5 481.2h454.8v24.3H29.5z"/></svg>