<svg width="50" height="50" fill="none" xmlns="http://www.w3.org/2000/svg"><circle cx="25" cy="25" r="25" fill="#fff"/><path d="M13 28.626v2.456L20.98 35v-2.456L13 28.626z" fill="#6321A6"/><path d="M20.98 32.544V35l7.98-3.918v-2.456l-7.98 3.918z" fill="#FFCD00"/><path d="M29.02 28.626v2.456L37 27.164v-2.457l-7.98 3.919z" fill="#FF9E1B"/><path d="M13 23.772v2.456l7.98 3.918V27.69L13 23.772z" fill="#6321A6"/><path d="M20.98 27.69v2.456l7.98-3.918v-2.456l-7.98 3.918z" fill="#FFCD00"/><path d="M29.02 23.772v2.456L37 22.31v-2.456l-7.98 3.918z" fill="#FF9E1B"/><path d="M13 18.918v2.456l7.98 3.918v-2.456L13 18.918z" fill="#6321A6"/><path d="M20.98 22.778v2.456l7.98-3.918v-2.398l-7.98 3.86z" fill="#FFCD00"/><path d="M29.02 18.918v2.456L37 17.456V15l-7.98 3.918z" fill="#FF9E1B"/></svg>